<svg width="24" height="24" viewBox="0 0 24 24" fill="none" xmlns="http://www.w3.org/2000/svg">
<path d="M4.82698 7.13803L5.71799 7.59202L4.82698 7.13803ZM5.2682 18.7318L5.9753 19.4389L5.97531 19.4389L5.2682 18.7318ZM17.862 16.173L17.408 15.282H17.408L17.862 16.173ZM19.173 14.862L18.282 14.408V14.408L19.173 14.862ZM19.173 7.13803L18.282 7.59202V7.59202L19.173 7.13803ZM17.862 5.82698L18.316 4.93597V4.93597L17.862 5.82698ZM6.13803 5.82698L6.59202 6.71799L6.13803 5.82698ZM7.20711 16.7929L7.91421 17.5L7.20711 16.7929ZM5.5 10.3C5.5 9.44342 5.50078 8.86113 5.53755 8.41104C5.57337 7.97262 5.6383 7.74842 5.71799 7.59202L3.93597 6.68404C3.68868 7.16937 3.59012 7.68608 3.54419 8.24817C3.49922 8.7986 3.5 9.47642 3.5 10.3H5.5ZM5.5 11.5V10.3H3.5V11.5H5.5ZM3.5 11.5V16.5H5.5V11.5H3.5ZM3.5 16.5V18.4136H5.5V16.5H3.5ZM3.5 18.4136C3.5 19.7054 5.06186 20.3524 5.9753 19.4389L4.56109 18.0247C4.90757 17.6782 5.5 17.9236 5.5 18.4136H3.5ZM5.97531 19.4389L7.91421 17.5L6.5 16.0858L4.56109 18.0247L5.97531 19.4389ZM14.7 15.5H7.91421V17.5H14.7V15.5ZM17.408 15.282C17.2516 15.3617 17.0274 15.4266 16.589 15.4624C16.1389 15.4992 15.5566 15.5 14.7 15.5V17.5C15.5236 17.5 16.2014 17.5008 16.7518 17.4558C17.3139 17.4099 17.8306 17.3113 18.316 17.064L17.408 15.282ZM18.282 14.408C18.0903 14.7843 17.7843 15.0903 17.408 15.282L18.316 17.064C19.0686 16.6805 19.6805 16.0686 20.064 15.316L18.282 14.408ZM18.5 11.7C18.5 12.5566 18.4992 13.1389 18.4624 13.589C18.4266 14.0274 18.3617 14.2516 18.282 14.408L20.064 15.316C20.3113 14.8306 20.4099 14.3139 20.4558 13.7518C20.5008 13.2014 20.5 12.5236 20.5 11.7H18.5ZM18.5 10.3V11.7H20.5V10.3H18.5ZM18.282 7.59202C18.3617 7.74842 18.4266 7.97262 18.4624 8.41104C18.4992 8.86113 18.5 9.44342 18.5 10.3H20.5C20.5 9.47642 20.5008 8.7986 20.4558 8.24817C20.4099 7.68608 20.3113 7.16937 20.064 6.68404L18.282 7.59202ZM17.408 6.71799C17.7843 6.90973 18.0903 7.2157 18.282 7.59202L20.064 6.68404C19.6805 5.93139 19.0686 5.31947 18.316 4.93597L17.408 6.71799ZM14.7 6.5C15.5566 6.5 16.1389 6.50078 16.589 6.53755C17.0274 6.57337 17.2516 6.6383 17.408 6.71799L18.316 4.93597C17.8306 4.68868 17.3139 4.59012 16.7518 4.54419C16.2014 4.49922 15.5236 4.5 14.7 4.5V6.5ZM9.3 6.5H14.7V4.5H9.3V6.5ZM6.59202 6.71799C6.74842 6.6383 6.97262 6.57337 7.41104 6.53755C7.86113 6.50078 8.44342 6.5 9.3 6.5V4.5C8.47642 4.5 7.7986 4.49922 7.24817 4.54419C6.68608 4.59012 6.16937 4.68868 5.68404 4.93597L6.59202 6.71799ZM5.71799 7.59202C5.90973 7.21569 6.21569 6.90973 6.59202 6.71799L5.68404 4.93597C4.93139 5.31947 4.31947 5.93139 3.93597 6.68404L5.71799 7.59202ZM7.91421 17.5H7.91421V15.5C7.38378 15.5 6.87507 15.7107 6.5 16.0858L7.91421 17.5Z" fill="black"/>
<path d="M8.5 9.5L15.5 9.5" stroke="black" stroke-linecap="round" stroke-linejoin="round"/>
<path d="M8.5 12.5L13.5 12.5" stroke="black" stroke-linecap="round" stroke-linejoin="round"/>
</svg>
