<svg width="24" height="24" viewBox="0 0 24 24" fill="none" xmlns="http://www.w3.org/2000/svg">
<path d="M20.7099 16.1L19.0699 14.46C18.9264 14.3268 18.828 14.1521 18.7886 13.9603C18.7491 13.7684 18.7706 13.5691 18.8499 13.39C19.1987 12.6411 19.3828 11.8261 19.3899 11C19.3946 10.9669 19.3946 10.9332 19.3899 10.9C19.3934 9.70344 19.0228 8.53567 18.3299 7.56004C16.991 5.68881 15.2166 4.17177 13.1599 3.14004C11.8554 2.50141 10.3844 2.28441 8.95101 2.51913C7.51759 2.75386 6.19269 3.42867 5.15994 4.45004L4.48994 5.12004C3.45782 6.15671 2.77642 7.49068 2.54145 8.93455C2.30649 10.3784 2.52977 11.8596 3.17994 13.17L3.27994 13.34C2.74628 13.8937 2.44558 14.6311 2.43994 15.4C2.44391 15.9307 2.58855 16.4507 2.8591 16.9072C3.12965 17.3637 3.51644 17.7402 3.98 17.9984C4.44357 18.2567 4.96733 18.3873 5.49786 18.377C6.02839 18.3668 6.5467 18.216 6.99994 17.94C7.17994 18.08 7.33994 18.23 7.51994 18.36C7.89845 18.6232 8.30827 18.8382 8.73994 19H8.82994C9.00994 19.07 9.19994 19.13 9.39994 19.19H9.54994C9.86115 19.27 10.1792 19.3202 10.4999 19.34H10.7799H10.8999H11.1199C11.3299 19.34 11.5299 19.34 11.7399 19.28H11.9099C12.4016 19.1956 12.8794 19.0442 13.3299 18.83C13.5095 18.7577 13.7062 18.7391 13.8961 18.7764C14.086 18.8136 14.261 18.9052 14.3999 19.04L15.8599 20.5C16.4934 21.1357 17.3525 21.4952 18.2499 21.5C19.0027 21.492 19.7217 21.1864 20.2499 20.65L20.6299 20.27C21.1815 19.7211 21.4982 18.9793 21.5131 18.2012C21.5281 17.4232 21.2401 16.6698 20.7099 16.1ZM5.40994 16.42C5.21216 16.42 5.01882 16.3614 4.85437 16.2515C4.68992 16.1416 4.56175 15.9855 4.48606 15.8027C4.41037 15.62 4.39057 15.4189 4.42916 15.225C4.46774 15.031 4.56298 14.8528 4.70283 14.7129C4.84269 14.5731 5.02087 14.4778 5.21485 14.4393C5.40883 14.4007 5.6099 14.4205 5.79262 14.4962C5.97535 14.5718 6.13153 14.7 6.24141 14.8645C6.35129 15.0289 6.40994 15.2223 6.40994 15.42C6.40994 15.6853 6.30458 15.9396 6.11705 16.1271C5.92951 16.3147 5.67516 16.42 5.40994 16.42ZM8.50994 16.56L8.24994 16.36C8.35407 16.0575 8.40811 15.74 8.40994 15.42C8.40994 14.6244 8.09387 13.8613 7.53126 13.2987C6.96865 12.7361 6.20559 12.42 5.40994 12.42C5.27994 12.42 5.15994 12.42 5.02994 12.42L4.93994 12.26C4.47482 11.3246 4.3144 10.2669 4.4812 9.23564C4.648 8.20433 5.13365 7.25118 5.86994 6.51004L6.53994 5.84004C7.2906 5.12059 8.24687 4.65305 9.27567 4.50249C10.3045 4.35194 11.3546 4.52585 12.2799 5.00004C13.9598 5.84026 15.4189 7.06305 16.5399 8.57004L8.50994 16.56ZM19.2899 18.93L18.9199 19.31C18.4999 19.73 17.8499 19.65 17.3099 19.11L15.8499 17.66C15.42 17.2329 14.8707 16.946 14.2745 16.8371C13.6783 16.7282 13.0631 16.8024 12.5099 17.05C12.1947 17.2045 11.8573 17.3091 11.5099 17.36C11.3188 17.3965 11.1245 17.4133 10.9299 17.41H10.5899H10.4899L17.3599 10.54C17.4299 11.2252 17.3124 11.9165 17.0199 12.54C16.7723 13.0932 16.6981 13.7084 16.807 14.3046C16.9159 14.9008 17.2028 15.4501 17.6299 15.88L19.2699 17.53C19.4559 17.7143 19.5621 17.9642 19.5658 18.226C19.5696 18.4877 19.4705 18.7405 19.2899 18.93Z" fill="black"/>
</svg>
