<svg width="20" height="20" viewBox="0 0 20 20" fill="none" xmlns="http://www.w3.org/2000/svg">
<path d="M11 6.33C11.85 6.03 12.53 5.35 12.83 4.5H16L13 11.5C13 13.16 14.57 14.5 16.5 14.5C18.43 14.5 20 13.16 20 11.5L17 4.5H19V2.5H12.83C12.42 1.33 11.31 0.5 10 0.5C8.69 0.5 7.58 1.33 7.17 2.5H1V4.5H3L0 11.5C0 13.16 1.57 14.5 3.5 14.5C5.43 14.5 7 13.16 7 11.5L4 4.5H7.17C7.47 5.35 8.15 6.03 9 6.33V17.5H0V19.5H20V17.5H11V6.33ZM18.37 11.5H14.63L16.5 7.14L18.37 11.5ZM5.37 11.5H1.63L3.5 7.14L5.37 11.5ZM10 4.5C9.45 4.5 9 4.05 9 3.5C9 2.95 9.45 2.5 10 2.5C10.55 2.5 11 2.95 11 3.5C11 4.05 10.55 4.5 10 4.5Z" fill="white"/>
</svg>
