<svg width="20" height="20" viewBox="0 0 20 20" fill="none" xmlns="http://www.w3.org/2000/svg">
<path d="M14.5 0.825012C12.76 0.825012 11.09 1.63501 10 2.91501C8.91 1.63501 7.24 0.825012 5.5 0.825012C2.42 0.825012 0 3.24501 0 6.32501C0 10.105 3.4 13.185 8.55 17.865L10 19.175L11.45 17.855C16.6 13.185 20 10.105 20 6.32501C20 3.24501 17.58 0.825012 14.5 0.825012ZM10.1 16.375L10 16.475L9.9 16.375C5.14 12.065 2 9.21501 2 6.32501C2 4.32501 3.5 2.82501 5.5 2.82501C7.04 2.82501 8.54 3.81501 9.07 5.18501H10.94C11.46 3.81501 12.96 2.82501 14.5 2.82501C16.5 2.82501 18 4.32501 18 6.32501C18 9.21501 14.86 12.065 10.1 16.375Z" fill="white"/>
</svg>
