<svg width="34" height="34" viewBox="0 0 34 34" fill="none" xmlns="http://www.w3.org/2000/svg">
<path d="M19.4306 30.3284C18.3809 29.817 17.7226 28.9664 17.235 27.9585C16.5877 26.6203 16.3597 25.1983 16.3829 23.7247C16.3888 23.3482 16.4183 23.3705 16.0338 23.3331C15.1531 23.2474 14.2773 23.1255 13.4644 22.7381C12.5393 22.2973 12.0584 21.5577 12.0462 20.5423C12.0272 18.9567 12.04 17.3707 12.0368 15.7849C12.0362 15.5157 12.0197 15.2466 12.0162 14.9773C12.0116 14.629 12.014 14.6281 12.3529 14.628C13.731 14.6278 15.1092 14.6283 16.4873 14.6284C18.466 14.6285 20.4446 14.6283 22.4233 14.6286C22.7283 14.6287 22.7352 14.6297 22.7346 14.937C22.7318 16.3838 22.8086 17.831 22.7365 19.2773C22.6938 20.1347 22.5754 20.9781 22.0729 21.7143C21.5534 22.4755 20.7946 22.8677 19.9372 23.1117C19.5067 23.2343 19.0652 23.2943 18.622 23.3419C18.5048 23.3545 18.4368 23.3861 18.432 23.5173C18.3786 24.9578 18.568 26.3423 19.3651 27.5873C19.4939 27.7886 19.639 27.9772 19.8153 28.1412C20.2712 28.5654 20.7894 28.7244 21.4076 28.5695C23.8723 27.9522 25.7993 26.5826 27.188 24.4571C28.2347 22.8552 28.8157 21.0847 29.0336 19.1949C29.3285 16.6379 28.8964 14.2088 27.6208 11.9618C26.1304 9.33622 23.9426 7.53453 21.0793 6.56207C19.678 6.08615 18.2325 5.89655 16.761 5.98306C14.1867 6.13441 11.8886 7.02506 9.90203 8.67866C7.98748 10.2723 6.70478 12.2794 6.05984 14.6859C5.65929 16.1804 5.55929 17.6972 5.77501 19.2335C6.18102 22.1252 7.48262 24.5387 9.65877 26.4756C10.9057 27.5853 12.3363 28.3858 13.9372 28.8681C14.3827 29.0023 14.7093 29.2263 14.8141 29.7108C14.9668 30.417 14.2796 31.0845 13.582 30.8862C11.3995 30.2661 9.49538 29.1576 7.86179 27.5869C6.22778 26.0158 5.04518 24.1537 4.33389 22.0011C3.76566 20.2814 3.53898 18.5168 3.67158 16.7045C3.82983 14.5417 4.44562 12.5229 5.55585 10.6637C6.847 8.50162 8.60318 6.81165 10.8147 5.59978C11.9834 4.95937 13.2219 4.50505 14.5246 4.23202C16.0183 3.91895 17.5256 3.83615 19.0405 4.04536C23.9602 4.72472 27.5294 7.30956 29.7885 11.7132C30.4142 12.9328 30.7925 14.2428 30.9963 15.5966C31.1987 16.9418 31.1963 18.2895 31.0222 19.6426C30.7357 21.8701 30.022 23.9361 28.7536 25.7943C27.1757 28.1061 25.0406 29.662 22.3425 30.4286C21.6448 30.6268 20.9413 30.7878 20.2086 30.5962C19.947 30.5278 19.6919 30.4476 19.4306 30.3284Z" fill="#D63A3F"/>
<path d="M15.4813 12.0571C15.4811 12.5493 15.4748 13.0184 15.4837 13.4873C15.4872 13.6763 15.4217 13.7439 15.2301 13.7401C14.7151 13.7301 14.1997 13.7312 13.6847 13.7398C13.5065 13.7428 13.4376 13.6826 13.4385 13.502C13.4438 12.4333 13.4418 11.3645 13.443 10.2957C13.4437 9.67508 14.089 9.38973 14.6249 9.47189C15.2501 9.56776 15.4795 9.8542 15.4801 10.4885C15.4805 11.0037 15.4808 11.5189 15.4813 12.0571Z" fill="#D63A3F"/>
<path d="M19.309 11.4566C19.309 11.0952 19.307 10.7568 19.3095 10.4185C19.3142 9.78257 19.8049 9.37023 20.4414 9.46475C21.0913 9.56125 21.3359 9.84124 21.3374 10.4951C21.3398 11.4793 21.3362 12.4636 21.3456 13.4477C21.3476 13.6619 21.2893 13.7482 21.0592 13.7409C20.5599 13.725 20.0596 13.7296 19.56 13.7397C19.3688 13.7435 19.3036 13.6755 19.3057 13.4865C19.3133 12.8177 19.3089 12.1486 19.309 11.4566Z" fill="#D63A3F"/>
</svg>
