<svg width="29" height="28" viewBox="0 0 29 28" fill="none" xmlns="http://www.w3.org/2000/svg">
<path d="M16.4306 27.3284C15.3809 26.817 14.7226 25.9664 14.235 24.9585C13.5877 23.6203 13.3597 22.1983 13.3829 20.7247C13.3888 20.3482 13.4183 20.3705 13.0338 20.3331C12.1531 20.2474 11.2773 20.1255 10.4644 19.7381C9.53935 19.2973 9.05838 18.5577 9.0462 17.5423C9.02718 15.9567 9.04001 14.3707 9.03678 12.7849C9.03623 12.5157 9.01969 12.2466 9.01616 11.9773C9.01158 11.629 9.01401 11.6281 9.35288 11.628C10.731 11.6278 12.1092 11.6283 13.4873 11.6284C15.466 11.6285 17.4446 11.6283 19.4233 11.6286C19.7283 11.6287 19.7352 11.6297 19.7346 11.937C19.7318 13.3838 19.8086 14.831 19.7365 16.2773C19.6938 17.1347 19.5754 17.9781 19.0729 18.7143C18.5534 19.4755 17.7946 19.8677 16.9372 20.1117C16.5067 20.2343 16.0652 20.2943 15.622 20.3419C15.5048 20.3545 15.4368 20.3861 15.432 20.5173C15.3786 21.9578 15.568 23.3423 16.3651 24.5873C16.4939 24.7886 16.639 24.9772 16.8153 25.1412C17.2712 25.5654 17.7894 25.7244 18.4076 25.5695C20.8723 24.9522 22.7993 23.5826 24.188 21.4571C25.2347 19.8552 25.8157 18.0847 26.0336 16.1949C26.3285 13.6379 25.8964 11.2088 24.6208 8.96178C23.1304 6.33622 20.9426 4.53453 18.0793 3.56207C16.678 3.08615 15.2325 2.89655 13.761 2.98306C11.1867 3.13441 8.88858 4.02506 6.90203 5.67866C4.98748 7.27232 3.70478 9.2794 3.05984 11.6859C2.65929 13.1804 2.55929 14.6972 2.77501 16.2335C3.18102 19.1252 4.48262 21.5387 6.65877 23.4756C7.90566 24.5853 9.3363 25.3858 10.9372 25.8681C11.3827 26.0023 11.7093 26.2263 11.8141 26.7108C11.9668 27.417 11.2796 28.0845 10.582 27.8862C8.39947 27.2661 6.49538 26.1576 4.86179 24.5869C3.22778 23.0158 2.04518 21.1537 1.33389 19.0011C0.765662 17.2814 0.538981 15.5168 0.671583 13.7045C0.829834 11.5417 1.44562 9.52288 2.55585 7.66372C3.847 5.50162 5.60318 3.81165 7.81473 2.59978C8.98343 1.95937 10.2219 1.50505 11.5246 1.23202C13.0183 0.918951 14.5256 0.836153 16.0405 1.04536C20.9602 1.72472 24.5294 4.30956 26.7885 8.71318C27.4142 9.93283 27.7925 11.2428 27.9963 12.5966C28.1987 13.9418 28.1963 15.2895 28.0222 16.6426C27.7357 18.8701 27.022 20.9361 25.7536 22.7943C24.1757 25.1061 22.0406 26.662 19.3425 27.4286C18.6448 27.6268 17.9413 27.7878 17.2086 27.5962C16.947 27.5278 16.6919 27.4476 16.4306 27.3284Z" fill="#D63A3F"/>
</svg>
