<svg width="20" height="20" viewBox="0 0 20 20" fill="none" xmlns="http://www.w3.org/2000/svg">
<path d="M13.49 7.63C13.31 4.84 12.18 2.12 10.06 0C7.92 2.14 6.74 4.86 6.51 7.63C7.79 8.31 8.97 9.19 10 10.26C11.03 9.2 12.21 8.32 13.49 7.63ZM10.05 3.19C10.68 4.22 11.12 5.37 11.35 6.57C10.88 6.87 10.44 7.2 10.01 7.55C9.59 7.21 9.14 6.88 8.68 6.58C8.93 5.38 9.39 4.23 10.05 3.19ZM10 13.45C9.18 12.2 8.14 11.11 6.94 10.25C6.81 10.16 6.67 10.09 6.54 9.99C6.67 10.08 6.81 10.16 6.93 10.24C4.98 8.83 2.59 8 0 8C0 13.32 3.36 17.82 8.03 19.49C8.66 19.72 9.32 19.89 10 20C10.68 19.88 11.33 19.71 11.97 19.49C16.64 17.82 20 13.32 20 8C15.82 8 12.15 10.17 10 13.45ZM11.32 17.6C10.88 17.75 10.44 17.87 9.99 17.97C9.55 17.88 9.12 17.76 8.71 17.61C5.42 16.43 3.01 13.62 2.26 10.26C3.36 10.52 4.41 10.97 5.38 11.59L5.36 11.6C5.49 11.69 5.62 11.78 5.75 11.85L5.82 11.89C6.81 12.61 7.66 13.5 8.33 14.54L10 17.1L11.67 14.55C12.36 13.5 13.22 12.6 14.2 11.89L14.27 11.84C14.36 11.79 14.45 11.73 14.54 11.67L14.53 11.65C15.51 11 16.6 10.52 17.74 10.25C16.99 13.62 14.59 16.43 11.32 17.6ZM6.99 10.28C6.97 10.27 6.95 10.25 6.94 10.24C6.94 10.24 6.95 10.24 6.95 10.25C6.96 10.26 6.97 10.27 6.99 10.28Z" fill="black"/>
</svg>
