<svg width="20" height="20" viewBox="0 0 20 20" fill="none" xmlns="http://www.w3.org/2000/svg">
<path d="M8 8C8 7.80222 7.94136 7.60888 7.83147 7.44443C7.72159 7.27998 7.56541 7.15181 7.38269 7.07612C7.19996 7.00043 6.9989 6.98063 6.80491 7.01921C6.61093 7.0578 6.43275 7.15304 6.2929 7.29289C6.15305 7.43275 6.0578 7.61093 6.01922 7.80491C5.98063 7.99889 6.00044 8.19996 6.07612 8.38268C6.15181 8.56541 6.27998 8.72159 6.44443 8.83147C6.60888 8.94135 6.80222 9 7 9C7.26522 9 7.51957 8.89464 7.70711 8.70711C7.89465 8.51957 8 8.26522 8 8ZM12.5 12.06C12.3865 11.9935 12.2609 11.95 12.1305 11.9321C12.0002 11.9142 11.8675 11.9222 11.7403 11.9556C11.613 11.9891 11.4936 12.0473 11.3889 12.127C11.2841 12.2067 11.1962 12.3062 11.13 12.42C11.0165 12.6196 10.8521 12.7856 10.6536 12.901C10.4551 13.0165 10.2296 13.0773 10 13.0773C9.77039 13.0773 9.54486 13.0165 9.34638 12.901C9.14789 12.7856 8.98353 12.6196 8.87 12.42C8.80384 12.3062 8.71588 12.2067 8.61115 12.127C8.50643 12.0473 8.38701 11.9891 8.25973 11.9556C8.13246 11.9222 7.99984 11.9142 7.86947 11.9321C7.73909 11.95 7.61354 11.9935 7.5 12.06C7.27127 12.1919 7.104 12.4089 7.03468 12.6637C6.96537 12.9185 6.99963 13.1904 7.13 13.42C7.42005 13.9248 7.83811 14.3442 8.34201 14.6358C8.8459 14.9274 9.4178 15.081 10 15.081C10.5822 15.081 11.1541 14.9274 11.658 14.6358C12.1619 14.3442 12.58 13.9248 12.87 13.42C13.0004 13.1904 13.0346 12.9185 12.9653 12.6637C12.896 12.4089 12.7287 12.1919 12.5 12.06ZM13 7C12.8022 7 12.6089 7.05865 12.4444 7.16853C12.28 7.27841 12.1518 7.43459 12.0761 7.61732C12.0004 7.80004 11.9806 8.00111 12.0192 8.19509C12.0578 8.38907 12.153 8.56725 12.2929 8.70711C12.4328 8.84696 12.6109 8.9422 12.8049 8.98079C12.9989 9.01937 13.2 8.99957 13.3827 8.92388C13.5654 8.84819 13.7216 8.72002 13.8315 8.55557C13.9414 8.39112 14 8.19778 14 8C14 7.73478 13.8946 7.48043 13.7071 7.29289C13.5196 7.10536 13.2652 7 13 7ZM10 0C8.02219 0 6.08879 0.58649 4.4443 1.6853C2.79981 2.78412 1.51809 4.3459 0.761209 6.17317C0.00433284 8.00043 -0.193701 10.0111 0.192152 11.9509C0.578004 13.8907 1.53041 15.6725 2.92894 17.0711C4.32746 18.4696 6.10929 19.422 8.0491 19.8079C9.98891 20.1937 11.9996 19.9957 13.8268 19.2388C15.6541 18.4819 17.2159 17.2002 18.3147 15.5557C19.4135 13.9112 20 11.9778 20 10C20 8.68678 19.7413 7.38642 19.2388 6.17317C18.7363 4.95991 17.9997 3.85752 17.0711 2.92893C16.1425 2.00035 15.0401 1.26375 13.8268 0.761205C12.6136 0.258658 11.3132 0 10 0ZM10 18C8.13732 18.008 6.33021 17.3658 4.89032 16.1842C3.45043 15.0025 2.46802 13.3554 2.11252 11.5269C1.75702 9.69843 2.05071 7.80322 2.94293 6.16811C3.83516 4.53299 5.27 3.26047 7 2.57C6.98972 2.71315 6.98972 2.85685 7 3C7 3.79565 7.31607 4.55871 7.87868 5.12132C8.44129 5.68393 9.20436 6 10 6C10.2652 6 10.5196 5.89464 10.7071 5.70711C10.8946 5.51957 11 5.26522 11 5C11 4.73478 10.8946 4.48043 10.7071 4.29289C10.5196 4.10536 10.2652 4 10 4C9.73479 4 9.48043 3.89464 9.2929 3.70711C9.10536 3.51957 9 3.26522 9 3C9 2.73478 9.10536 2.48043 9.2929 2.29289C9.48043 2.10536 9.73479 2 10 2C12.1217 2 14.1566 2.84285 15.6569 4.34315C17.1572 5.84344 18 7.87827 18 10C18 12.1217 17.1572 14.1566 15.6569 15.6569C14.1566 17.1571 12.1217 18 10 18Z" fill="black"/>
</svg>
