<svg width="14" height="20" viewBox="0 0 14 20" fill="none" xmlns="http://www.w3.org/2000/svg">
<path d="M12 12C11.76 11.76 11.56 11.51 11.35 11.25C12.51 9.5 14 6.56 14 3C14 1.05 13.26 0 12 0C10.46 0 8.04 2.06 7 5.97C5.96 2.06 3.54 0 2 0C0.74 0 0 1.05 0 3C0 6.56 1.49 9.5 2.65 11.25C2.44 11.51 2.24 11.76 2 12C1.75 12.25 0 13.39 0 15.5C0 17.98 2.02 20 4.5 20C6 20 7 19.5 7 19.5C7 19.5 8 20 9.5 20C11.98 20 14 17.98 14 15.5C14 13.39 12.25 12.25 12 12ZM11.88 2.03C11.94 2.2 12 2.51 12 3C12 5.84 10.89 8.24 9.93 9.78C9.55 9.52 9.1 9.3 8.53 9.16C8.77 4.64 10.97 2.33 11.88 2.03ZM2 3C2 2.51 2.06 2.2 2.12 2.03C3.03 2.33 5.23 4.64 5.48 9.16C4.9 9.3 4.45 9.51 4.08 9.78C3.11 8.24 2 5.84 2 3ZM9.5 18C8.5 18 7.7 17.67 7.28 17.44C7.7 17.26 8 16.73 8 16.5C8 16.22 7.55 16 7 16C6.45 16 6 16.22 6 16.5C6 16.73 6.3 17.26 6.72 17.44C6.3 17.67 5.5 18 4.5 18C3.12 18 2 16.88 2 15.5C2 14.8 2.43 14.26 3 13.77C3.44 13.41 3.61 13.25 4.3 12.4C5.06 11.45 5.39 11 7 11C8.61 11 8.94 11.45 9.7 12.4C10.39 13.25 10.56 13.41 11 13.77C11.57 14.26 12 14.8 12 15.5C12 16.88 10.88 18 9.5 18ZM9 14C9 14.41 8.78 14.75 8.5 14.75C8.22 14.75 8 14.41 8 14C8 13.59 8.22 13.25 8.5 13.25C8.78 13.25 9 13.59 9 14ZM6 14C6 14.41 5.78 14.75 5.5 14.75C5.22 14.75 5 14.41 5 14C5 13.59 5.22 13.25 5.5 13.25C5.78 13.25 6 13.59 6 14Z" fill="black"/>
</svg>
